# xmcd CD database file
#
# Track frame offsets:
#	150
#	21092
#	36535
#	52677
#	68320
#	84592
#	98477
#	114607
#	130267
#	143687
#	163752
#	178482
#	193767
#	215540
#	225757
#	237930
#	255287
#	266992
#	280655
#	293947
#	306547
#	321172
#
# Disc length: 4448 seconds
#
# Revision: 0
# Processed by: cddbd v1.5.2PL0 Copyright (c) Steve Scherf et al.
# Submitted via: CDex 1.70beta3
#
DISCID=3b115e16
DTITLE=Various Artist - THE VERY BEST OF BIG BAND
DYEAR=1900
DGENRE=Jazz
TTITLE0=TAKE THE "A" TRAIN
TTITLE1=AFTER SUPPER
TTITLE2=IN THE MOOD
TTITLE3=PINK PANTHER
TTITLE4=SPLANKY
TTITLE5=DON'T BE THAT WAY
TTITLE6=SOLITUDE
TTITLE7=TUXEDO JUNCTION
TTITLE8=PETER GUN
TTITLE9=MIDNIGHT BLUE
TTITLE10=PERDIDO
TTITLE11=MOONLIGHT SERENADE
TTITLE12=LIL' DARLIN
TTITLE13=LET'S DANCE
TTITLE14=THE KID FROM RED BANK
TTITLE15=WHIRLY-BIRD
TTITLE16=MOON RIVER
TTITLE17=SOPHISTICATED LADY
TTITLE18=BABY ELEPHANT WALK
TTITLE19=THE DAYS OF WINE AND ROSES
TTITLE20=A STRING OF PEARLS
TTITLE21=THE WORLD IS WAITING FOR THE SUNRISE
EXTD=
EXTT0=
EXTT1=
EXTT2=
EXTT3=
EXTT4=
EXTT5=
EXTT6=
EXTT7=
EXTT8=
EXTT9=
EXTT10=
EXTT11=
EXTT12=
EXTT13=
EXTT14=
EXTT15=
EXTT16=
EXTT17=
EXTT18=
EXTT19=
EXTT20=
EXTT21=
PLAYORDER=
